<?xml version="1.0" standalone="no"?>
<!DOCTYPE svg PUBLIC "-//W3C//DTD SVG 20010904//EN"
 "http://www.w3.org/TR/2001/REC-SVG-20010904/DTD/svg10.dtd">
<svg version="1.0" xmlns="http://www.w3.org/2000/svg"
 width="1600.000000pt" height="1600.000000pt" viewBox="0 0 1600.000000 1600.000000"
 preserveAspectRatio="xMidYMid meet">
<metadata>
Created by potrace 1.11, written by Peter Selinger 2001-2013
</metadata>
<g transform="translate(0.000000,1600.000000) scale(0.100000,-0.100000)"
fill="#000000" stroke="none">
<path d="M8042 10190 c-11 -11 -23 -28 -27 -39 -3 -10 -12 -22 -20 -25 -8 -3
-15 -10 -15 -15 0 -5 -42 -73 -92 -150 -51 -77 -120 -182 -152 -233 -62 -96
-124 -192 -231 -358 -33 -52 -108 -168 -165 -257 -57 -89 -109 -159 -114 -156
-5 3 -6 1 -2 -5 6 -10 -60 -123 -76 -130 -5 -2 -8 -8 -8 -13 0 -5 -17 -35 -37
-67 -20 -31 -60 -93 -88 -137 -28 -44 -87 -135 -131 -202 -43 -68 -83 -130
-89 -140 -5 -9 -60 -93 -121 -187 -61 -94 -123 -191 -138 -216 -86 -141 -116
-185 -128 -185 -7 0 -12 -7 -11 -15 1 -8 -52 -98 -117 -200 -146 -228 -429
-670 -540 -845 -124 -195 -172 -265 -180 -260 -4 3 -7 -3 -6 -13 0 -9 -5 -16
-12 -14 -8 1 -11 -2 -7 -8 8 -13 -31 -78 -162 -273 -80 -119 -92 -143 -88
-170 3 -17 14 -36 23 -43 16 -13 29 -15 112 -20 19 -1 40 -3 45 -4 6 -1 15 -1
20 0 10 2 1500 0 2048 -3 l317 -2 0 217 c2 810 2 805 -16 812 -8 3 -109 6
-222 6 -114 -1 -216 -1 -227 -1 -11 0 -44 1 -72 1 -29 0 -53 2 -53 5 0 3 33
54 73 113 95 143 96 145 104 162 4 8 9 17 12 20 7 5 63 89 71 105 10 20 149
230 162 245 7 9 22 33 33 53 11 21 28 47 38 57 9 11 17 22 17 25 0 10 63 100
72 103 4 2 8 8 8 13 0 6 24 47 54 92 82 127 126 197 126 203 0 3 6 12 14 20 8
7 17 19 20 26 7 16 1 24 158 -225 70 -111 131 -206 135 -212 5 -5 27 -41 51
-80 23 -38 66 -108 96 -155 30 -47 78 -123 107 -170 29 -47 94 -151 146 -231
88 -139 103 -168 86 -170 -41 -4 -65 -4 -68 2 -3 3 -25 3 -49 -1 -25 -4 -51
-3 -58 1 -6 4 -16 5 -21 2 -4 -3 -89 -5 -188 -6 -118 0 -179 -4 -180 -11 -1
-6 -2 -235 -4 -509 -3 -481 -3 -498 16 -507 10 -6 19 -8 19 -4 0 3 7 1 15 -6
10 -9 15 -9 15 -1 0 13 22 10 32 -4 5 -7 8 -6 8 1 0 12 159 12 178 0 7 -4 12
-4 12 1 0 9 361 10 377 0 5 -3 13 -4 16 -1 3 4 404 8 891 9 487 2 903 6 925
10 27 4 41 12 44 26 5 19 -43 104 -198 344 -32 50 -72 113 -90 140 -35 55
-264 413 -330 515 -23 36 -77 121 -120 190 -43 69 -140 222 -215 340 -75 118
-152 241 -171 274 -19 32 -41 69 -49 82 -69 108 -672 1056 -818 1284 -83 129
-230 361 -328 515 -98 154 -195 307 -217 340 -22 33 -62 96 -90 140 -27 44
-53 82 -56 85 -3 3 -13 19 -21 35 -8 17 -17 32 -21 35 -3 3 -12 15 -20 27 -16
22 -16 22 -37 3z"/>
<path d="M7254 9021 c4 -6 1 -14 -7 -17 -7 -2 -14 -11 -14 -19 0 -20 2 -19 21
9 11 18 13 27 4 32 -7 4 -8 3 -4 -5z"/>
<path d="M7815 7640 c-3 -5 -1 -10 4 -10 6 0 11 5 11 10 0 6 -2 10 -4 10 -3 0
-8 -4 -11 -10z"/>
<path d="M11065 5620 c-3 -6 1 -7 9 -4 18 7 21 14 7 14 -6 0 -13 -4 -16 -10z"/>
</g>
</svg>
