<svg xmlns="http://www.w3.org/2000/svg" xmlns:xlink="http://www.w3.org/1999/xlink" version="1.1" preserveAspectRatio="none" x="0px" y="0px" viewBox="0 0 100 100"><defs><g id="a"><path fill="rgba(0, 72, 38, 1)" stroke="none" d=" M 84.6 24.6 Q 86.5017578125 22.694140625 86.5 20 86.501953125 17.3056640625 84.6 15.4 82.6943359375 13.498046875 80 13.5 77.3056640625 13.498046875 75.4 15.4 L 50 40.8 24.6 15.4 Q 22.694140625 13.498046875 20 13.5 17.3056640625 13.498046875 15.4 15.4 13.498046875 17.3056640625 13.5 20 13.498046875 22.694140625 15.4 24.6 L 40.8 50 15.4 75.4 Q 13.498046875 77.3056640625 13.5 80 13.498046875 82.6943359375 15.4 84.6 17.3056640625 86.501953125 20 86.5 22.694140625 86.5017578125 24.6 84.6 L 50 59.2 75.4 84.6 Q 77.3056640625 86.5017578125 80 86.5 82.6943359375 86.501953125 84.6 84.6 86.501953125 82.6943359375 86.5 80 86.5017578125 77.3056640625 84.6 75.4 L 59.2 50 84.6 24.6 Z"/></g></defs><g transform="matrix( 1, 0, 0, 1, 0,0) "><use xlink:href="#a"/></g></svg>