<svg id="Layer_1" data-name="Layer 1" xmlns="http://www.w3.org/2000/svg" xmlns:xlink="http://www.w3.org/1999/xlink" viewBox="0 0 540.39 469.9"><defs><style>.cls-1{fill:#006837;}.cls-2{fill:#8cc63f;}.cls-3{fill:url(#linear-gradient);}.cls-4{fill:url(#linear-gradient-2);}.cls-5{fill:#00341c;}.cls-6{fill:url(#linear-gradient-3);}</style><linearGradient id="linear-gradient" x1="365.07" y1="554.56" x2="365.07" y2="727.09" gradientUnits="userSpaceOnUse"><stop offset="0" stop-color="#006837"/><stop offset="0.31" stop-color="#004726"/><stop offset="0.47" stop-color="#00341c"/></linearGradient><linearGradient id="linear-gradient-2" x1="634.94" y1="484.18" x2="634.94" y2="656.7" gradientUnits="userSpaceOnUse"><stop offset="0.41" stop-color="#006837"/><stop offset="0.72" stop-color="#004726"/><stop offset="0.88" stop-color="#00341c"/></linearGradient><linearGradient id="linear-gradient-3" x1="500" y1="230.83" x2="500" y2="367.63" gradientUnits="userSpaceOnUse"><stop offset="0.14" stop-color="#66a487"/><stop offset="1" stop-color="#006837"/></linearGradient></defs><path class="cls-1" d="M764.29,735H535.05V648.69a6.11,6.11,0,0,1,6-6h52.12a5.76,5.76,0,0,0,5.08-8.77l-18.71-32.51-18.28-31.76L548.68,547.8,505.07,472a6,6,0,0,0-10.14,0l-43.6,75.76L430.9,583.29l-10.44,18.13-18.71,32.51a5.84,5.84,0,0,0,5.08,8.77h51.66a6.1,6.1,0,0,1,6,6V735H235.71a5.84,5.84,0,0,1-5.08-8.77L278.8,642.7l23.83-41.28,14.54-25.2,16.4-28.42,98-169.88,63.33-109.75a5.68,5.68,0,0,1,10.14,0L568.4,377.92l98,169.88,10.43,18.07,20.52,35.55L721.2,642.7l48.17,83.48A5.84,5.84,0,0,1,764.29,735Z" transform="translate(-229.8 -265.05)"/><path class="cls-1" d="M218.5,629.88" transform="translate(-229.8 -265.05)"/><path class="cls-2" d="M788.69,368.31" transform="translate(-229.8 -265.05)"/><path class="cls-3" d="M333.57,547.8H451.33L430.9,583.29l-10.44,18.13-18.71,32.51a5.84,5.84,0,0,0,5.08,8.77h-128l23.83-41.28,14.54-25.2Z" transform="translate(-229.8 -265.05)"/><path class="cls-4" d="M598.25,633.93l-18.71-32.51-18.28-31.76L548.68,547.8H666.43l10.43,18.07,20.52,35.55L721.2,642.7h-128A5.76,5.76,0,0,0,598.25,633.93Z" transform="translate(-229.8 -265.05)"/><path class="cls-5" d="M230.63,726.18s45.25-83.48,60.73-83.48H278.8Z" transform="translate(-229.8 -265.05)"/><path class="cls-5" d="M769.36,726.18s-45.25-83.48-60.73-83.48h12.56Z" transform="translate(-229.8 -265.05)"/><path class="cls-6" d="M568.4,377.92H431.6l63.33-109.75a5.68,5.68,0,0,1,10.14,0Z" transform="translate(-229.8 -265.05)"/></svg>