<?xml version="1.0" encoding="utf-8"?>
<!-- Generator: Adobe Illustrator 24.2.1, SVG Export Plug-In . SVG Version: 6.00 Build 0)  -->
<svg version="1.1" id="Layer_1" xmlns="http://www.w3.org/2000/svg" xmlns:xlink="http://www.w3.org/1999/xlink" x="0px" y="0px"
	 viewBox="0 0 64 42.8" style="enable-background:new 0 0 64 42.8;" xml:space="preserve">
<style type="text/css">
	.st0{fill:#006837;}
</style>
<g>
	<path class="st0" d="M51,42.8h7c1.7,0,3-1.3,3-3v-7H51V42.8z M56,35.8c1.1,0,2,0.9,2,2s-0.9,2-2,2s-2-0.9-2-2S54.9,35.8,56,35.8z"
		/>
	<path class="st0" d="M13,16.8v18h18l0-18H13z M28,31.8H16v-12h12V31.8z"/>
	<path class="st0" d="M42,6.8h12c0.6,0,1-0.4,1-1v-4c0-0.6-0.4-1-1-1H42c-0.6,0-1,0.4-1,1v4C41,6.3,41.4,6.8,42,6.8z M51,2.8h2v2h-2
		V2.8z M47,2.8h2v2h-2V2.8z M43,2.8h2v2h-2V2.8z"/>
	<path class="st0" d="M58,4.8h-1v1c0,1.7-1.3,3-3,3H42c-1.7,0-3-1.3-3-3v-1H6c-1.7,0-3,1.3-3,3v32c0,1.7,1.3,3,3,3h43v-12h12v-23
		C61,6.1,59.7,4.8,58,4.8z M6,9.8c0-1.1,0.9-2,2-2s2,0.9,2,2s-0.9,2-2,2S6,10.9,6,9.8z M37,18.8h-4v2h4v2h-4v2h4v2h-4v2h4v2h-4v2h4
		v2h-4c0,1.1-0.9,2-2,2v4h-2v-4h-2v4h-2v-4h-2v4h-2v-4h-2v4h-2v-4h-2v4h-2v-4c-1.1,0-2-0.9-2-2H7v-2h4v-2H7v-2h4v-2H7v-2h4v-2H7v-2
		h4v-2H7v-2h4c0-1.1,0.9-2,2-2v-4h2v4h2v-4h2v4h2v-4h2v4h2v-4h2v4h2v-4h2v4c1.1,0,2,0.9,2,2h4V18.8z M45,11.8c1.7,0,3,1.3,3,3
		s-1.3,3-3,3s-3-1.3-3-3S43.3,11.8,45,11.8z M43,39.8c-1.7,0-3-1.3-3-3s1.3-3,3-3s3,1.3,3,3S44.7,39.8,43,39.8z M58,27.8H42v-6h16
		V27.8z M55,17.8c-1.7,0-3-1.3-3-3s1.3-3,3-3s3,1.3,3,3S56.7,17.8,55,17.8z"/>
</g>
</svg>
