<?xml version="1.0" encoding="utf-8"?>
<!-- Generator: Adobe Illustrator 24.2.1, SVG Export Plug-In . SVG Version: 6.00 Build 0)  -->
<svg version="1.1" id="Layer_1" xmlns="http://www.w3.org/2000/svg" xmlns:xlink="http://www.w3.org/1999/xlink" x="0px" y="0px"
	 viewBox="0 0 422 404" style="enable-background:new 0 0 422 404;" xml:space="preserve">
<style type="text/css">
	.st0{fill:#2D7254;}
</style>
<g>
	<g>
		<g>
			<path class="st0" d="M345.9,241.4c-4.8,1.2-9.8-0.4-13.1-4.1l-27.2-30.6l-27.2,30.5c-4.2,4.7-11.2,5.8-16.7,2.6L212,210.6
				c-5.4-3.2-7.8-9.5-6-15.5l12.4-39.8l-39.8-8.9c-6.1-1.4-10.4-6.7-10.4-13l0.3-64H4v255.1h347.2V240L345.9,241.4z"/>
			<polygon class="st0" points="139.4,351.6 119,404 237,404 218.7,351.6 			"/>
			<path class="st0" d="M365.9,137.6c2.1-4,5.8-6.9,10.3-7.9l37.8-8.3V87.7l-37.8-8.4c-4.4-1-8.1-3.8-10.2-7.8
				c-0.7-1.4-1.5-2.8-2.4-4.1c-2.3-3.8-2.9-8.4-1.6-12.6l11.9-37.9L345.6,0.1l-25.9,29.1c-3,3.4-7.4,5.3-12,5.1h-0.2
				c-0.7,0-3.7,0-4.4,0c-4.5,0.2-8.9-1.7-11.9-5.1L265.1,0l-28.2,16.6l11.9,37.9c1.3,4.2,0.8,8.8-1.6,12.6c-0.8,1.4-1.6,2.7-2.3,4.1
				c-2.1,4-5.8,6.9-10.3,7.9l-37.8,8.3v33.7l37.8,8.4c4.4,1,8.1,3.8,10.2,7.8c0.7,1.4,1.5,2.8,2.4,4.1c2.3,3.8,2.9,8.4,1.6,12.6
				l-11.9,37.9l28.3,16.7l25.9-29.1c3-3.4,7.4-5.3,12-5.1c0.7,0,3.8,0,4.7,0c4.5-0.2,8.9,1.7,11.9,5.1l26,29.1l28.2-16.6L362,154.3
				c-1.3-4.2-0.8-8.8,1.6-12.6C364.4,140.4,365.2,139,365.9,137.6z M347.8,104.4c0,23.4-19,42.4-42.3,42.4s-42.3-19-42.3-42.4
				s19-42.4,42.3-42.4S347.8,81,347.8,104.4z"/>
		</g>
		<path class="st0" d="M305.4,90.2c-7.8,0-14.1,6.4-14.1,14.2s6.3,14.2,14.1,14.2c7.8,0,14.2-6.4,14.2-14.2S313.2,90.2,305.4,90.2z"
			/>
	</g>
</g>
</svg>
