<?xml version="1.0" encoding="utf-8"?>
<!-- Generator: Adobe Illustrator 24.1.0, SVG Export Plug-In . SVG Version: 6.00 Build 0)  -->
<svg version="1.1" id="Layer_1" xmlns="http://www.w3.org/2000/svg" xmlns:xlink="http://www.w3.org/1999/xlink" x="0px" y="0px"
	 viewBox="0 0 1019.5 129.1" style="enable-background:new 0 0 1019.5 129.1;" xml:space="preserve">
<style type="text/css">
	.st0{fill:#2D8F54;}
	.st1{fill:#CDCDCD;}
	.st2{fill:#2D7254;}
</style>
<path class="st0" d="M113.7,81.2L129.8,65L146,81.2L162.1,65l16.2,16.2l2.2,48.1h-66.9L113.7,81.2z M453.3,97.3l-16.1,16.2
	l-17.9,15.8h66L453.3,97.3z M323.9,97.3L291.5,65l-16.1,16.2l-44.6,46.9l92.7,1.2L323.9,97.3z M843.1,129.4l-1.6-32l-16.1-16.1
	l-16.2,16.1L793,81.2L777.3,97l-6.7,22.5l-171.7-5.9l-16.2-16.2l-32,32H843.1z"/>
<path class="st1" d="M938.5,65l32.4-32.3l16.2,16.2l0,45.8l-49-1.2L938.5,65z M279.4,129.4l-4-48.1l-16-16.2l-16.4,16.2l-32.4-32.3
	l-32.4,32.3l-5.5,48.1H279.4z M20.7,129.4l-4-48.1l-16-16.2l-16.4,16.2L-48,48.9l-32.4,32.3l-5.5,48.1H20.7z M452.9,129.4
	l-48.1-48.1l-16.2,16.1l-32,32H452.9z M794.2,129.4l-1.2-15.8l-32.4-32.4l-16.2,16.1L696,81.2l-16-16.2l-32.6,32.4l-16.1-16.1
	L615,97.3l-5.8,32H794.2z"/>
<path class="st2" d="M776.4,129.4L712.1,65l-32.3,32.4l-16.1-16.1l-32.3,32.4L615,97.4l-32,32H776.4z M356.2,65l-48.5,48.6
	l-32.4-32.4l-32.4,32.4l-16.2-16.2l-16.1,16.2l-32.4-32.4L146,113.6l-81-80.9L49,48.9L0.1,97.8L0,129.4h420.6L356.2,65z M987.2,48.9
	l-32.4,32.4l-32.4-32.3l-48.6,48.5l-16.1-16.1l-32.3,32.4l-16.2-16.2l-32,32h242.4V81.2L987.2,48.9z"/>
</svg>
