<?xml version="1.0" encoding="utf-8"?>
<!-- Generator: Adobe Illustrator 24.2.1, SVG Export Plug-In . SVG Version: 6.00 Build 0)  -->
<svg version="1.1" id="Layer_1" xmlns="http://www.w3.org/2000/svg" xmlns:xlink="http://www.w3.org/1999/xlink" x="0px" y="0px"
	 viewBox="0 0 64 50" style="enable-background:new 0 0 64 50;" xml:space="preserve">
<style type="text/css">
	.st0{fill:#2D7254;}
</style>
<g>
	<path class="st0" d="M58.1,50H5.9C3.2,50,1,47.8,1,45.1V4.9C1,2.2,3.2,0,5.9,0h52.3C60.8,0,63,2.2,63,4.9v40.3
		C63,47.8,60.8,50,58.1,50z M5.9,2C4.3,2,3,3.3,3,4.9v40.3C3,46.7,4.3,48,5.9,48l0,0h52.3c1.6,0,2.9-1.3,2.9-2.9l0,0V4.9
		C61,3.3,59.7,2,58.1,2l0,0H5.9z"/>
	<path class="st0" d="M62,12H2c-0.6,0-1-0.4-1-1s0.4-1,1-1h60c0.6,0,1,0.4,1,1S62.6,12,62,12z"/>
	<path class="st0" d="M8,8C6.9,8,6,7.1,6,6s0.9-2,2-2s2,0.9,2,2S9.1,8,8,8z M8,6L8,6z M8,6L8,6z M8,6L8,6z M8,6L8,6z M8,6L8,6z M8,6
		L8,6z M8,6L8,6z M8,6L8,6z"/>
	<path class="st0" d="M14,8c-1.1,0-2-0.9-2-2s0.9-2,2-2s2,0.9,2,2S15.1,8,14,8z M14,6L14,6z M14,6L14,6z M14,6L14,6z M14,6L14,6z
		 M14,6L14,6z M14,6L14,6z M14,6L14,6z M14,6L14,6z"/>
	<path class="st0" d="M20,8c-1.1,0-2-0.9-2-2s0.9-2,2-2s2,0.9,2,2S21.1,8,20,8z M20,6L20,6z M20,6L20,6z M20,6L20,6z M20,6L20,6z
		 M20,6L20,6z M20,6L20,6z M20,6L20,6z M20,6L20,6z"/>
	<path class="st0" d="M58,7H25c-0.6,0-1-0.4-1-1s0.4-1,1-1h33c0.6,0,1,0.4,1,1S58.6,7,58,7z"/>
	<path class="st0" d="M17,30H9c-2.2,0-4-1.8-3.9-4v-8c0-2.2,1.8-4,3.9-4h8.1c2.2,0.1,3.9,1.8,3.9,4v8.1C20.9,28.3,19.2,30,17,30z
		 M9,16c-1.1,0-2,0.9-2,2v8.1C7.1,27.2,7.9,28,9,28h8.1c1.1,0,2-0.9,2-2v-8c0-1.1-0.9-2-2-2l0,0H9z"/>
	<path class="st0" d="M29.1,21h-3.2c-1.6,0-2.9-1.3-2.9-2.9v-1.2c0-1.6,1.3-2.9,2.9-2.9h3.2c1.6,0,2.9,1.3,2.9,2.9v1.2
		C32,19.7,30.7,21,29.1,21z M25.9,16c-0.5,0-0.9,0.4-0.9,0.9l0,0v1.2c0,0.5,0.4,0.9,0.9,0.9l0,0h3.2c0.5,0,0.9-0.4,0.9-0.9l0,0v-1.2
		c0-0.5-0.4-0.9-0.9-0.9l0,0H25.9z"/>
	<path class="st0" d="M58,20H35c-0.6,0-1-0.4-1-1s0.4-1,1-1h23c0.6,0,1,0.4,1,1S58.6,20,58,20z"/>
	<path class="st0" d="M58,25H24c-0.6,0-1-0.4-1-1s0.4-1,1-1h34c0.6,0,1,0.4,1,1S58.6,25,58,25z"/>
	<path class="st0" d="M58,30H24c-0.6,0-1-0.4-1-1s0.4-1,1-1h34c0.6,0,1,0.4,1,1S58.6,30,58,30z"/>
	<path class="st0" d="M58,35H6c-0.6,0-1-0.4-1-1s0.4-1,1-1h52c0.6,0,1,0.4,1,1S58.6,35,58,35z"/>
	<path class="st0" d="M56.2,45H39.8c-1.6,0-2.8-1.3-2.8-2.8l0,0v-1.3c0-1.6,1.3-2.8,2.8-2.8l0,0h16.3c1.6,0,2.8,1.3,2.8,2.8l0,0v1.3
		C59,43.7,57.7,45,56.2,45L56.2,45z M39.8,40c-0.5,0-0.8,0.4-0.8,0.8v1.3c0,0.5,0.4,0.8,0.8,0.8h16.3c0.5,0,0.8-0.4,0.8-0.8v-1.3
		c0-0.5-0.4-0.8-0.8-0.8H39.8z"/>
	<path class="st0" d="M33,40H6c-0.6,0-1-0.4-1-1s0.4-1,1-1h27c0.6,0,1,0.4,1,1S33.6,40,33,40z"/>
</g>
</svg>
